<?xml version="1.0" standalone="no"?><!DOCTYPE svg PUBLIC "-//W3C//DTD SVG 1.1//EN" "http://www.w3.org/Graphics/SVG/1.1/DTD/svg11.dtd"><svg t="1495183061962" class="icon" style="" viewBox="0 0 1024 1024" version="1.1" xmlns="http://www.w3.org/2000/svg" p-id="11539" xmlns:xlink="http://www.w3.org/1999/xlink" width="200" height="200"><defs><style type="text/css"></style></defs><path d="M905.349 979.458h-786.7c-62.971 0-114.015-51.044-114.015-114.015v-359.146h1.082l67.325-353.444c0-62.971 51.044-114.015 114.015-114.015h649.882c62.971 0 114.015 51.044 114.015 114.015l67.321 353.444h1.089v359.146c0 62.971-51.050 114.015-114.015 114.015zM916.752 152.854c0-44.078-35.732-79.809-79.809-79.809h-649.882c-44.078 0-79.809 35.732-79.809 79.809l-67.325 353.444h944.147l-67.321-353.444zM985.159 540.503h-946.319v324.942c0 44.078 35.732 79.809 79.809 79.809h786.7c44.078 0 79.809-35.732 79.809-79.809v-324.942zM762.832 797.035h-495.963c-31.486 0-57.006-25.522-57.006-57.006s25.522-57.006 57.006-57.006h495.963c31.486 0 57.006 25.522 57.006 57.006s-25.522 57.006-57.006 57.006zM209.862 204.162h604.276c9.441 0 17.102 7.657 17.102 17.102s-7.662 17.102-17.102 17.102h-604.276c-9.445 0-17.102-7.657-17.102-17.102s7.657-17.102 17.102-17.102zM255.468 352.38h518.766c9.445 0 17.102 7.657 17.102 17.102s-7.657 17.102-17.102 17.102h-518.766c-9.445 0-17.102-7.657-17.102-17.102s7.657-17.102 17.102-17.102z" p-id="11540"></path></svg>