<?xml version="1.0" standalone="no"?><!DOCTYPE svg PUBLIC "-//W3C//DTD SVG 1.1//EN" "http://www.w3.org/Graphics/SVG/1.1/DTD/svg11.dtd"><svg t="1495183005657" class="icon" style="" viewBox="0 0 1024 1024" version="1.1" xmlns="http://www.w3.org/2000/svg" p-id="9755" xmlns:xlink="http://www.w3.org/1999/xlink" width="200" height="200"><defs><style type="text/css"></style></defs><path d="M468.032 698.24c-6.272-6.272-6.272-16.384 0-22.656l457.28-457.216c18.688-18.688 18.688-49.216 0-67.904l-40.576-40.512c-18.688-18.688-49.152-18.688-67.904 0L359.616 567.296c-6.272 6.208-16.384 6.208-22.656 0-6.272-6.272-6.272-16.448 0-22.656l457.28-457.28c31.168-31.168 81.92-31.168 113.152 0l40.576 40.512c31.168 31.168 31.168 81.92 0 113.152L490.688 698.24C484.416 704.512 474.24 704.512 468.032 698.24z" p-id="9756"></path><path d="M468.032 698.24 337.024 567.296c-6.272-6.272-6.272-16.448 0-22.656 6.272-6.272 16.384-6.272 22.656 0l131.072 130.944c6.208 6.272 6.208 16.384 0 22.656C484.416 704.512 474.24 704.512 468.032 698.24z" p-id="9757"></path><path d="M878.208 288.128l-131.072-131.008c-6.272-6.208-6.272-16.384 0-22.656s16.384-6.208 22.656 0l131.072 131.008c6.208 6.272 6.272 16.384 0 22.656C894.592 294.464 884.352 294.4 878.208 288.128z" p-id="9758"></path><path d="M299.84 735.488c-3.776-3.648-5.568-9.28-4.352-14.72l37.248-168.256c1.92-8.64 10.432-14.08 19.072-12.16 8.64 2.048 14.08 10.56 12.16 19.136l-37.184 168.192c-1.92 8.768-10.496 14.144-19.072 12.224C304.576 739.136 301.888 737.6 299.84 735.488z" p-id="9759"></path><path d="M299.776 735.488c-2.048-2.112-3.648-4.736-4.288-7.872-1.92-8.64 3.52-17.152 12.16-19.136l168.32-37.12c8.576-1.856 17.088 3.648 19.072 12.096 1.856 8.64-3.584 17.152-12.16 19.136l-168.32 37.248C308.992 740.992 303.424 739.264 299.776 735.488z" p-id="9760"></path><path d="M897.984 977.984 126.016 977.984c-44.096 0-80-35.904-80-80L46.016 126.016c0-44.096 35.904-80 80-80l508.032 0c8.832 0 16 7.168 16 16s-7.168 16-16 16L126.016 78.016c-26.496 0-48 21.504-48 48l0 772.032c0 26.432 21.504 48 48 48l772.032 0c26.432 0 48-21.568 48-48l0-496c0-8.832 7.168-16 16-16s16 7.168 16 16l0 496C977.984 942.144 942.144 977.984 897.984 977.984z" p-id="9761"></path></svg>