<?xml version="1.0" standalone="no"?><!DOCTYPE svg PUBLIC "-//W3C//DTD SVG 1.1//EN" "http://www.w3.org/Graphics/SVG/1.1/DTD/svg11.dtd"><svg fill="#999" t="1495100107027" class="icon" style="" viewBox="0 0 1024 1024" version="1.1" xmlns="http://www.w3.org/2000/svg" p-id="1273" xmlns:xlink="http://www.w3.org/1999/xlink" width="200" height="200"><defs><style type="text/css"></style></defs><path d="M665.6 460.373333c41.386667-28.586667 70.4-75.52 70.4-119.04 0-96.426667-74.666667-170.666667-170.666667-170.666666H298.666667v597.333333h300.373333c89.173333 0 158.293333-72.533333 158.293333-161.706667 0-64.853333-36.693333-120.32-91.733333-145.92zM426.666667 277.333333h128c35.413333 0 64 28.586667 64 64s-28.586667 64-64 64h-128v-128z m149.333333 384H426.666667v-128h149.333333c35.413333 0 64 28.586667 64 64s-28.586667 64-64 64z" p-id="1274"></path></svg>