<?xml version="1.0" standalone="no"?><!DOCTYPE svg PUBLIC "-//W3C//DTD SVG 1.1//EN" "http://www.w3.org/Graphics/SVG/1.1/DTD/svg11.dtd"><svg fill="#999" t="1495159333222" class="icon" style="" viewBox="0 0 1024 1024" version="1.1" xmlns="http://www.w3.org/2000/svg" p-id="3472" xmlns:xlink="http://www.w3.org/1999/xlink" width="200" height="200"><defs><style type="text/css"></style></defs><path d="M342.677 595.002" p-id="3473"></path><path d="M920.887 527.046l-206.45 206.45c-8.142 8.146-21.347 8.146-29.493 0l-29.493-29.493c-8.146-8.142-8.146-21.347 0-29.493l162.213-162.213L655.452 350.089c-8.146-8.146-8.146-21.351 0-29.497l29.493-29.493c8.146-8.146 21.351-8.146 29.493 0l206.45 206.45C929.038 505.695 929.038 518.9 920.887 527.046zM434.759 857.498l-37.643-10.54c-10.394-2.911-16.788-13.193-14.281-22.969l167.635-644.738c2.682-10.01 13.877-15.712 25.001-12.73l40.287 10.794c11.128 2.982 17.973 13.514 15.287 23.528L458.12 845.068C455.609 854.845 445.153 860.409 434.759 857.498zM368.545 704.003l-29.493 29.493c-8.142 8.146-21.347 8.146-29.493 0l-206.45-206.45c-8.146-8.146-8.146-21.351 0-29.497l206.45-206.45c8.146-8.146 21.351-8.146 29.493 0l29.493 29.493c8.146 8.146 8.146 21.351 0 29.497L206.332 512.297 368.545 674.51C376.691 682.656 376.691 695.861 368.545 704.003z" p-id="3474"></path></svg>