<?xml version="1.0" standalone="no"?><!DOCTYPE svg PUBLIC "-//W3C//DTD SVG 1.1//EN" "http://www.w3.org/Graphics/SVG/1.1/DTD/svg11.dtd"><svg t="1495100098882" fill="#999" class="icon" style="" viewBox="0 0 1024 1024" version="1.1" xmlns="http://www.w3.org/2000/svg" p-id="1159" xmlns:xlink="http://www.w3.org/1999/xlink" width="200" height="200"><defs><style type="text/css"></style></defs><path d="M704 256v490.666667c0 94.293333-76.373333 170.666667-170.666667 170.666666s-170.666667-76.373333-170.666666-170.666666V213.333333a106.666667 106.666667 0 0 1 213.333333 0v448c0 23.466667-19.2 42.666667-42.666667 42.666667s-42.666667-19.2-42.666666-42.666667V256H426.666667v405.333333a106.666667 106.666667 0 0 0 213.333333 0V213.333333c0-94.293333-76.373333-170.666667-170.666667-170.666666S298.666667 119.04 298.666667 213.333333v533.333334c0 129.706667 104.96 234.666667 234.666666 234.666666s234.666667-104.96 234.666667-234.666666V256h-64z" p-id="1160"></path></svg>