<?xml version="1.0" standalone="no"?><!DOCTYPE svg PUBLIC "-//W3C//DTD SVG 1.1//EN" "http://www.w3.org/Graphics/SVG/1.1/DTD/svg11.dtd"><svg t="1495100120213" class="icon" fill="#999" style="" viewBox="0 0 1024 1024" version="1.1" xmlns="http://www.w3.org/2000/svg" p-id="1501" xmlns:xlink="http://www.w3.org/1999/xlink" width="200" height="200"><defs><style type="text/css"></style></defs><path d="M170.666667 448c-35.413333 0-64 28.586667-64 64s28.586667 64 64 64 64-28.586667 64-64-28.586667-64-64-64z m0-256c-35.413333 0-64 28.586667-64 64S135.253333 320 170.666667 320 234.666667 291.413333 234.666667 256 206.08 192 170.666667 192z m0 519.253333a56.746667 56.746667 0 1 0-0.042667 113.450667A56.746667 56.746667 0 0 0 170.666667 711.253333zM298.666667 810.666667h597.333333v-85.333334H298.666667v85.333334z m0-256h597.333333v-85.333334H298.666667v85.333334z m0-341.333334v85.333334h597.333333V213.333333H298.666667z" p-id="1502"></path></svg>