<?xml version="1.0" standalone="no"?><!DOCTYPE svg PUBLIC "-//W3C//DTD SVG 1.1//EN" "http://www.w3.org/Graphics/SVG/1.1/DTD/svg11.dtd"><svg t="1495100434565" fill="#999" class="icon" style="" viewBox="0 0 1024 1024" version="1.1" xmlns="http://www.w3.org/2000/svg" p-id="3418" xmlns:xlink="http://www.w3.org/1999/xlink" width="200" height="200"><defs><style type="text/css"></style></defs><path d="M963.2 236.8c16 0 32 12.8 32 32l0 492.8c0 16-12.8 32-32 32L60.8 793.6c-16 0-32-12.8-32-32L28.8 265.6c0-16 12.8-32 32-32L963.2 236.8M963.2 204.8 60.8 204.8C28.8 204.8 0 233.6 0 265.6l0 492.8c0 35.2 28.8 60.8 60.8 60.8l902.4 0c35.2 0 60.8-28.8 60.8-60.8L1024 265.6C1024 233.6 995.2 204.8 963.2 204.8L963.2 204.8z" p-id="3419"></path><path d="M496 204.8l32 0 0 614.4-32 0 0-614.4Z" p-id="3420"></path></svg>